<?xml version="1.0" encoding="iso-8859-1"?>
<!-- Generator: Adobe Illustrator 17.1.0, SVG Export Plug-In . SVG Version: 6.00 Build 0)  -->
<!DOCTYPE svg PUBLIC "-//W3C//DTD SVG 1.1//EN" "http://www.w3.org/Graphics/SVG/1.1/DTD/svg11.dtd">
<svg version="1.1" id="Capa_1" xmlns="http://www.w3.org/2000/svg" xmlns:xlink="http://www.w3.org/1999/xlink" x="0px" y="0px"
	 viewBox="0 0 356.227 356.227" style="enable-background:new 0 0 356.227 356.227;" xml:space="preserve">
<g>
	<g>
		<path d="M245.441,296.086H85.158C38.202,296.086,0,257.885,0,210.929v-1.159c0-43.485,33.128-79.749,75.419-82.558
			c16.468-1.094,32.725,2.849,46.746,11.2c18.132-48.348,65.089-80.058,117.576-78.193c30.931,1.106,60.194,14.812,82.399,38.593
			c21.981,23.54,34.086,53.68,34.086,84.868v1.621c0,4.142-3.358,7.5-7.5,7.5s-7.5-3.358-7.5-7.5v-1.621
			c0-56.819-46.72-106.493-102.021-108.471c-49.013-1.736-92.534,29.939-105.813,77.069c-0.679,2.41-2.515,4.322-4.896,5.098
			c-2.38,0.775-4.991,0.313-6.959-1.236c-12.824-10.084-28.847-15.038-45.125-13.961C41.976,144.466,15,174.156,15,209.769v1.159
			c0,38.685,31.473,70.157,70.158,70.157h160.283c28.952,0,56.048-12.896,74.342-35.38c2.615-3.213,7.339-3.698,10.551-1.084
			c3.213,2.614,3.698,7.338,1.084,10.551C310.263,281.173,278.926,296.086,245.441,296.086z"/>
	</g>
</g>
<g>
</g>
<g>
</g>
<g>
</g>
<g>
</g>
<g>
</g>
<g>
</g>
<g>
</g>
<g>
</g>
<g>
</g>
<g>
</g>
<g>
</g>
<g>
</g>
<g>
</g>
<g>
</g>
<g>
</g>
</svg>
