<?xml version="1.0" encoding="iso-8859-1"?>
<!-- Generator: Adobe Illustrator 17.1.0, SVG Export Plug-In . SVG Version: 6.00 Build 0)  -->
<!DOCTYPE svg PUBLIC "-//W3C//DTD SVG 1.1//EN" "http://www.w3.org/Graphics/SVG/1.1/DTD/svg11.dtd">
<svg version="1.1" id="Capa_1" xmlns="http://www.w3.org/2000/svg" xmlns:xlink="http://www.w3.org/1999/xlink" x="0px" y="0px"
	 viewBox="0 0 355.929 355.929" style="enable-background:new 0 0 355.929 355.929;" xml:space="preserve">
<g>
	<g>
		<path d="M296.575,312.493c-0.012,0-0.024,0-0.037,0l-187.293-0.915c-36.029,0-65.37-29.341-65.37-65.407
			c0-36.065,29.341-65.406,65.407-65.406c8.511,0,16.84,1.638,24.606,4.798c3.521-42.628,39.34-76.241,82.862-76.241
			c45.847,0,83.146,37.299,83.146,83.146c0,0.465-0.005,0.934-0.015,1.408c31.197,1.72,56.049,27.644,56.049,59.263
			C355.929,285.866,329.303,312.493,296.575,312.493z M109.281,195.765c-27.794,0-50.407,22.612-50.407,50.406
			c0,27.794,22.612,50.407,50.407,50.407l187.306,0.915c24.451-0.007,44.341-19.902,44.341-44.354
			c0-24.457-19.897-44.354-44.354-44.354c-1.225,0-2.524,0.067-4.089,0.21c-2.26,0.208-4.482-0.617-6.06-2.24
			c-1.579-1.623-2.339-3.872-2.07-6.12c0.363-3.036,0.54-5.708,0.54-8.168c0-37.576-30.57-68.146-68.146-68.146
			s-68.146,30.57-68.146,68.146c0,1.426,0.109,2.915,0.224,4.491l0.036,0.488c0.207,2.857-1.232,5.582-3.707,7.022
			c-2.476,1.442-5.555,1.346-7.938-0.244C128.927,198.69,119.267,195.765,109.281,195.765z"/>
	</g>
	<g>
		<g>
			<path d="M31.98,212.534c-2.014,0-4.021-0.806-5.499-2.398C9.405,191.737,0,167.772,0,142.655
				c0-54.709,44.509-99.219,99.219-99.219c35.882,0,69.074,19.467,86.624,50.804c2.024,3.614,0.735,8.185-2.879,10.208
				c-3.613,2.024-8.184,0.735-10.208-2.879c-14.899-26.605-43.077-43.133-73.536-43.133C52.78,58.436,15,96.217,15,142.655
				c0,21.319,7.982,41.661,22.476,57.277c2.818,3.036,2.641,7.781-0.395,10.599C35.637,211.872,33.806,212.534,31.98,212.534z"/>
		</g>
	</g>
</g>
<g>
</g>
<g>
</g>
<g>
</g>
<g>
</g>
<g>
</g>
<g>
</g>
<g>
</g>
<g>
</g>
<g>
</g>
<g>
</g>
<g>
</g>
<g>
</g>
<g>
</g>
<g>
</g>
<g>
</g>
</svg>
