<?xml version="1.0" encoding="iso-8859-1"?>
<!-- Generator: Adobe Illustrator 17.1.0, SVG Export Plug-In . SVG Version: 6.00 Build 0)  -->
<!DOCTYPE svg PUBLIC "-//W3C//DTD SVG 1.1//EN" "http://www.w3.org/Graphics/SVG/1.1/DTD/svg11.dtd">
<svg version="1.1" id="Capa_1" xmlns="http://www.w3.org/2000/svg" xmlns:xlink="http://www.w3.org/1999/xlink" x="0px" y="0px"
	 viewBox="0 0 381.91 381.91" style="enable-background:new 0 0 381.91 381.91;" xml:space="preserve">
<g>
	<g>
		<path d="M317.1,346.261c-0.013,0-0.024,0-0.037,0l-206.996-1.011c-39.388,0-71.461-32.074-71.461-71.498
			c0-39.425,32.074-71.499,71.498-71.499c9.67,0,19.126,1.935,27.897,5.661c3.336-47.221,42.821-84.62,90.875-84.62
			c50.235,0,91.104,40.869,91.104,91.104c0,0.757-0.012,1.524-0.036,2.307c34.422,1.494,61.965,29.965,61.965,64.748
			C381.91,317.187,352.836,346.261,317.1,346.261z M110.104,217.253c-31.153,0-56.498,25.346-56.498,56.499
			s25.345,56.498,56.498,56.498l207.008,1.011c27.46-0.006,49.798-22.348,49.798-49.809c0-27.465-22.345-49.81-49.81-49.81
			c-1.378,0-2.836,0.075-4.591,0.235c-2.252,0.204-4.48-0.616-6.06-2.239c-1.578-1.622-2.34-3.871-2.071-6.118
			c0.405-3.396,0.603-6.381,0.603-9.123c0-41.964-34.141-76.104-76.104-76.104c-41.963,0-76.104,34.14-76.104,76.104
			c0,1.609,0.122,3.273,0.25,5.035l0.038,0.523c0.207,2.857-1.231,5.582-3.707,7.023c-2.476,1.442-5.555,1.346-7.938-0.243
			C132.124,220.532,121.295,217.253,110.104,217.253z"/>
	</g>
	<g>
		<path d="M28.373,241.104c-2.408,0-4.772-1.157-6.222-3.303C7.66,216.351,0,191.278,0,165.293
			c0-34.396,13.329-66.794,37.532-91.228c24.182-24.413,56.417-38.056,90.766-38.416c2.719-0.02,5.24,1.417,6.59,3.778
			c1.35,2.36,1.315,5.267-0.089,7.595c-10.735,17.8-16.409,38.246-16.409,59.13c0,21.194,5.825,41.896,16.845,59.864
			c2.166,3.531,1.059,8.148-2.473,10.314c-3.532,2.165-8.149,1.057-10.314-2.473c-12.468-20.329-19.058-43.742-19.058-67.706
			c0-18.96,4.138-37.604,12.056-54.64C90.005,54.645,66.49,66.145,48.188,84.622C26.787,106.228,15,134.878,15,165.293
			c0,22.981,6.771,45.151,19.581,64.112c2.319,3.432,1.416,8.094-2.016,10.413C31.277,240.687,29.817,241.104,28.373,241.104z"/>
	</g>
</g>
<g>
</g>
<g>
</g>
<g>
</g>
<g>
</g>
<g>
</g>
<g>
</g>
<g>
</g>
<g>
</g>
<g>
</g>
<g>
</g>
<g>
</g>
<g>
</g>
<g>
</g>
<g>
</g>
<g>
</g>
</svg>
