<?xml version="1.0" encoding="iso-8859-1"?>
<!-- Generator: Adobe Illustrator 17.1.0, SVG Export Plug-In . SVG Version: 6.00 Build 0)  -->
<!DOCTYPE svg PUBLIC "-//W3C//DTD SVG 1.1//EN" "http://www.w3.org/Graphics/SVG/1.1/DTD/svg11.dtd">
<svg version="1.1" id="Capa_1" xmlns="http://www.w3.org/2000/svg" xmlns:xlink="http://www.w3.org/1999/xlink" x="0px" y="0px"
	 viewBox="0 0 368.48 368.48" style="enable-background:new 0 0 368.48 368.48;" xml:space="preserve">
<g>
	<path d="M303.854,247.422c-0.024,0-0.05,0-0.075,0c-0.289,0.003-0.576,0.013-0.864,0.023c-0.173,0.006-0.346,0.014-0.521,0.014
		c-12.874,0-25.585-1.881-37.781-5.592c-3.961-1.2-8.152,1.029-9.358,4.993c-1.205,3.963,1.03,8.152,4.993,9.358
		c9.704,2.951,19.696,4.866,29.835,5.723c-10.518,14.004-23.821,25.831-39.022,34.607c-19.575,11.302-41.943,17.275-64.686,17.275
		c-25.055,0-49.364-7.159-70.299-20.704c-3.478-2.248-8.12-1.255-10.371,2.223c-2.25,3.478-1.255,8.121,2.223,10.371
		c23.368,15.119,50.495,23.11,78.447,23.11c25.371,0,50.333-6.669,72.186-19.285c21.19-12.234,39.073-29.781,51.716-50.744
		c1.404-2.327,1.438-5.233,0.09-7.594C309.03,248.862,306.545,247.422,303.854,247.422z"/>
	<path d="M50.141,207.317c0.282,0,0.566-0.017,0.853-0.049c4.116-0.466,7.075-4.18,6.609-8.295
		c-0.55-4.864-0.829-9.827-0.829-14.752c0-34.374,13.32-66.752,37.508-91.171c21.077-21.277,48.275-34.37,77.656-37.61
		c-9.285,19.396-14.145,40.722-14.145,62.416c0,9.509,0.93,19.021,2.764,28.271c0.805,4.063,4.751,6.703,8.814,5.898
		s6.704-4.752,5.898-8.814c-1.644-8.292-2.477-16.822-2.477-25.354c0-23.602,6.413-46.71,18.546-66.827
		c1.404-2.328,1.438-5.234,0.089-7.595c-1.337-2.338-3.822-3.778-6.512-3.778c-0.025,0-0.053,0-0.079,0
		c-38.302,0.402-74.246,15.616-101.212,42.839c-26.988,27.246-41.852,63.373-41.852,101.727c0,5.485,0.312,11.017,0.925,16.438
		C43.131,204.489,46.376,207.317,50.141,207.317z"/>
	<path d="M89.772,177.256c0,4.143,3.357,7.5,7.5,7.5H360.98c4.143,0,7.5-3.357,7.5-7.5s-3.357-7.5-7.5-7.5H97.272
		C93.13,169.756,89.772,173.113,89.772,177.256z"/>
	<path d="M127.938,224.497c0-4.143-3.357-7.5-7.5-7.5H7.5c-4.143,0-7.5,3.357-7.5,7.5s3.357,7.5,7.5,7.5h112.938
		C124.58,231.997,127.938,228.64,127.938,224.497z"/>
	<path d="M360.98,216.997h-197.1c-4.143,0-7.5,3.357-7.5,7.5s3.357,7.5,7.5,7.5h197.1c4.143,0,7.5-3.357,7.5-7.5
		S365.123,216.997,360.98,216.997z"/>
	<path d="M224.002,271.737c0-4.143-3.357-7.5-7.5-7.5H47.523c-4.143,0-7.5,3.357-7.5,7.5s3.357,7.5,7.5,7.5h168.979
		C220.645,279.237,224.002,275.88,224.002,271.737z"/>
	<path d="M241.823,114.631h13.107v13.107c0,4.143,3.357,7.5,7.5,7.5s7.5-3.357,7.5-7.5v-13.107h13.107c4.143,0,7.5-3.357,7.5-7.5
		s-3.357-7.5-7.5-7.5h-13.107V86.523c0-4.143-3.357-7.5-7.5-7.5s-7.5,3.357-7.5,7.5v13.107h-13.107c-4.143,0-7.5,3.357-7.5,7.5
		S237.681,114.631,241.823,114.631z"/>
</g>
<g>
</g>
<g>
</g>
<g>
</g>
<g>
</g>
<g>
</g>
<g>
</g>
<g>
</g>
<g>
</g>
<g>
</g>
<g>
</g>
<g>
</g>
<g>
</g>
<g>
</g>
<g>
</g>
<g>
</g>
</svg>
