<?xml version="1.0" encoding="iso-8859-1"?>
<!-- Generator: Adobe Illustrator 17.1.0, SVG Export Plug-In . SVG Version: 6.00 Build 0)  -->
<!DOCTYPE svg PUBLIC "-//W3C//DTD SVG 1.1//EN" "http://www.w3.org/Graphics/SVG/1.1/DTD/svg11.dtd">
<svg version="1.1" id="Capa_1" xmlns="http://www.w3.org/2000/svg" xmlns:xlink="http://www.w3.org/1999/xlink" x="0px" y="0px"
	 viewBox="0 0 348.541 348.541" style="enable-background:new 0 0 348.541 348.541;" xml:space="preserve">
<g>
	<g>
		<path d="M341.041,212.595H7.5c-4.142,0-7.5-3.358-7.5-7.5s3.358-7.5,7.5-7.5h333.541c4.143,0,7.5,3.358,7.5,7.5
			S345.184,212.595,341.041,212.595z"/>
	</g>
	<g>
		<path d="M341.041,258.8H7.5c-4.142,0-7.5-3.358-7.5-7.5s3.358-7.5,7.5-7.5h333.541c4.143,0,7.5,3.358,7.5,7.5
			S345.184,258.8,341.041,258.8z"/>
	</g>
	<g>
		<path d="M341.041,305.005H7.5c-4.142,0-7.5-3.358-7.5-7.5s3.358-7.5,7.5-7.5h333.541c4.143,0,7.5,3.358,7.5,7.5
			S345.184,305.005,341.041,305.005z"/>
	</g>
	<g>
		<path d="M63.205,183.746c-3.747,0-6.985-2.803-7.438-6.616c-0.578-4.862-0.871-9.646-0.871-14.219
			c0-65.824,53.551-119.375,119.375-119.375c65.823,0,119.375,53.551,119.375,119.375c0,4.633-0.285,9.284-0.871,14.218
			c-0.488,4.114-4.223,7.049-8.332,6.563c-4.112-0.488-7.052-4.219-6.563-8.332c0.515-4.341,0.766-8.414,0.766-12.449
			c0-57.553-46.822-104.375-104.375-104.375S69.896,105.358,69.896,162.911c0,4.04,0.25,8.112,0.766,12.448
			c0.489,4.113-2.449,7.844-6.563,8.333C63.798,183.728,63.5,183.745,63.205,183.746z"/>
	</g>
</g>
<g>
</g>
<g>
</g>
<g>
</g>
<g>
</g>
<g>
</g>
<g>
</g>
<g>
</g>
<g>
</g>
<g>
</g>
<g>
</g>
<g>
</g>
<g>
</g>
<g>
</g>
<g>
</g>
<g>
</g>
</svg>
