<?xml version="1.0" encoding="iso-8859-1"?>
<!-- Generator: Adobe Illustrator 17.1.0, SVG Export Plug-In . SVG Version: 6.00 Build 0)  -->
<!DOCTYPE svg PUBLIC "-//W3C//DTD SVG 1.1//EN" "http://www.w3.org/Graphics/SVG/1.1/DTD/svg11.dtd">
<svg version="1.1" id="Capa_1" xmlns="http://www.w3.org/2000/svg" xmlns:xlink="http://www.w3.org/1999/xlink" x="0px" y="0px"
	 viewBox="0 0 348.541 348.541" style="enable-background:new 0 0 348.541 348.541;" xml:space="preserve">
<g>
	<g>
		<path d="M10.119,190.135c-4.142,0-7.5-3.358-7.5-7.5c0-39.424,32.074-71.499,71.499-71.499c9.67,0,19.126,1.934,27.897,5.661
			c3.336-47.22,42.821-84.62,90.875-84.62c50.235,0,91.104,40.869,91.104,91.104c0,0.757-0.012,1.526-0.036,2.308
			c30.84,1.365,56.94,24.786,61.315,55.547c0.583,4.101-2.268,7.898-6.369,8.481c-4.103,0.581-7.898-2.269-8.481-6.369
			c-3.464-24.355-24.663-42.722-49.31-42.722c-1.378,0-2.836,0.075-4.591,0.235c-2.253,0.206-4.481-0.617-6.06-2.239
			s-2.34-3.872-2.071-6.12c0.405-3.388,0.602-6.372,0.602-9.121c0-41.964-34.14-76.104-76.104-76.104
			c-41.964,0-76.104,34.14-76.104,76.104c0,1.609,0.122,3.273,0.25,5.034l0.038,0.523c0.207,2.857-1.231,5.582-3.707,7.023
			c-2.477,1.441-5.556,1.346-7.938-0.244c-9.293-6.204-20.121-9.482-31.313-9.482c-31.153,0-56.499,25.345-56.499,56.499
			C17.619,186.777,14.261,190.135,10.119,190.135z"/>
	</g>
	<g>
		<path d="M341.041,223.954H7.5c-4.142,0-7.5-3.358-7.5-7.5s3.358-7.5,7.5-7.5h333.541c4.142,0,7.5,3.358,7.5,7.5
			S345.183,223.954,341.041,223.954z"/>
	</g>
	<g>
		<path d="M185.948,270.159H7.5c-4.142,0-7.5-3.358-7.5-7.5s3.358-7.5,7.5-7.5h178.448c4.142,0,7.5,3.358,7.5,7.5
			S190.09,270.159,185.948,270.159z"/>
	</g>
	<g>
		<path d="M341.041,270.159H226.771c-4.142,0-7.5-3.358-7.5-7.5s3.358-7.5,7.5-7.5h114.271c4.142,0,7.5,3.358,7.5,7.5
			S345.183,270.159,341.041,270.159z"/>
	</g>
	<g>
		<path d="M341.041,316.364H99.226c-4.142,0-7.5-3.358-7.5-7.5s3.358-7.5,7.5-7.5h241.815c4.142,0,7.5,3.358,7.5,7.5
			S345.183,316.364,341.041,316.364z"/>
	</g>
	<g>
		<path d="M62.483,316.364H7.5c-4.142,0-7.5-3.358-7.5-7.5s3.358-7.5,7.5-7.5h54.983c4.142,0,7.5,3.358,7.5,7.5
			S66.625,316.364,62.483,316.364z"/>
	</g>
</g>
<g>
</g>
<g>
</g>
<g>
</g>
<g>
</g>
<g>
</g>
<g>
</g>
<g>
</g>
<g>
</g>
<g>
</g>
<g>
</g>
<g>
</g>
<g>
</g>
<g>
</g>
<g>
</g>
<g>
</g>
</svg>
