<?xml version="1.0" encoding="iso-8859-1"?>
<!-- Generator: Adobe Illustrator 17.1.0, SVG Export Plug-In . SVG Version: 6.00 Build 0)  -->
<!DOCTYPE svg PUBLIC "-//W3C//DTD SVG 1.1//EN" "http://www.w3.org/Graphics/SVG/1.1/DTD/svg11.dtd">
<svg version="1.1" id="Capa_1" xmlns="http://www.w3.org/2000/svg" xmlns:xlink="http://www.w3.org/1999/xlink" x="0px" y="0px"
	 viewBox="0 0 317.756 317.756" style="enable-background:new 0 0 317.756 317.756;" xml:space="preserve">
<g>
	<path d="M158.878,0c-4.143,0-7.5,3.358-7.5,7.5s3.357,7.5,7.5,7.5c79.335,0,143.878,64.543,143.878,143.878
		c0,71.093-51.833,130.298-119.691,141.834c1.384-4.705,2.099-9.597,2.099-14.543c0-28.604-23.271-51.875-51.875-51.875
		c-14.739,0-28.833,6.303-38.667,17.294c-2.763,3.086-2.499,7.828,0.588,10.59c3.086,2.762,7.827,2.499,10.59-0.588
		c6.992-7.814,17.012-12.296,27.489-12.296c20.333,0,36.875,16.542,36.875,36.875c0,5.701-1.356,11.299-3.908,16.399
		c-2.444,0.124-4.904,0.187-7.378,0.187C79.543,302.756,15,238.212,15,158.878c0-39.683,15.809-76.637,44.514-104.056
		c2.995-2.861,3.104-7.608,0.243-10.604c-2.861-2.996-7.608-3.105-10.604-0.243C17.456,74.252,0,115.058,0,158.878
		c0,87.605,71.272,158.878,158.878,158.878s158.878-71.272,158.878-158.878S246.483,0,158.878,0z"/>
	<path d="M197.201,46.794c-29.894,0-54.213,24.32-54.213,54.213s24.319,54.213,54.213,54.213s54.213-24.32,54.213-54.213
		S227.095,46.794,197.201,46.794z M197.201,140.22c-21.622,0-39.213-17.591-39.213-39.213s17.591-39.213,39.213-39.213
		s39.213,17.591,39.213,39.213S218.823,140.22,197.201,140.22z"/>
	<path d="M44.523,163.669c0,16.887,13.738,30.625,30.625,30.625s30.625-13.738,30.625-30.625s-13.738-30.625-30.625-30.625
		S44.523,146.783,44.523,163.669z M75.148,148.044c8.615,0,15.625,7.009,15.625,15.625s-7.01,15.625-15.625,15.625
		s-15.625-7.009-15.625-15.625S66.533,148.044,75.148,148.044z"/>
	<path d="M243.914,180.996c4.143,0,7.5-3.358,7.5-7.5s-3.357-7.5-7.5-7.5c-15.425,0-27.975,12.549-27.975,27.975
		s12.55,27.975,27.975,27.975s27.975-12.549,27.975-27.975c0-4.142-3.357-7.5-7.5-7.5s-7.5,3.358-7.5,7.5
		c0,7.154-5.82,12.975-12.975,12.975s-12.975-5.82-12.975-12.975S236.76,180.996,243.914,180.996z"/>
	<path d="M98.277,108.508c1.971,0,3.9-0.8,5.301-2.2c1.399-1.39,2.199-3.33,2.199-5.3c0-1.97-0.8-3.91-2.199-5.3
		c-1.4-1.4-3.33-2.2-5.301-2.2c-1.979,0-3.909,0.8-5.31,2.2c-1.39,1.39-2.19,3.33-2.19,5.3c0,1.97,0.801,3.91,2.19,5.3
		C94.368,107.708,96.298,108.508,98.277,108.508z"/>
	<path d="M123.918,54.588c1.97,0,3.899-0.8,5.3-2.19c1.4-1.4,2.2-3.33,2.2-5.31c0-1.97-0.8-3.9-2.2-5.3c-1.4-1.4-3.33-2.2-5.3-2.2
		c-1.98,0-3.91,0.8-5.311,2.2c-1.39,1.4-2.189,3.33-2.189,5.3c0,1.98,0.8,3.91,2.189,5.31
		C120.008,53.788,121.938,54.588,123.918,54.588z"/>
	<path d="M201.107,236.488c-1.39,1.4-2.189,3.33-2.189,5.31c0,1.97,0.8,3.9,2.189,5.3c1.4,1.4,3.33,2.2,5.311,2.2
		c1.97,0,3.899-0.8,5.3-2.2c1.39-1.4,2.19-3.33,2.19-5.3c0-1.98-0.801-3.91-2.19-5.31c-1.4-1.39-3.33-2.19-5.3-2.19
		C204.438,234.298,202.508,235.098,201.107,236.488z"/>
	<path d="M54.857,227.738c-1.39,1.4-2.189,3.33-2.189,5.31c0,1.97,0.8,3.9,2.189,5.3c1.4,1.4,3.33,2.2,5.311,2.2
		c1.97,0,3.899-0.8,5.3-2.2c1.39-1.4,2.2-3.33,2.2-5.3c0-1.98-0.811-3.91-2.2-5.31c-1.4-1.39-3.33-2.19-5.3-2.19
		C58.188,225.548,56.258,226.348,54.857,227.738z"/>
	<path d="M150.487,194.298c1.98,0,3.91-0.8,5.301-2.2c1.399-1.4,2.199-3.33,2.199-5.3c0-1.98-0.8-3.91-2.199-5.31
		c-1.391-1.39-3.32-2.19-5.301-2.19c-1.97,0-3.909,0.8-5.3,2.19c-1.399,1.4-2.2,3.33-2.2,5.31c0,1.97,0.801,3.9,2.2,5.3
		C146.578,193.498,148.518,194.298,150.487,194.298z"/>
</g>
<g>
</g>
<g>
</g>
<g>
</g>
<g>
</g>
<g>
</g>
<g>
</g>
<g>
</g>
<g>
</g>
<g>
</g>
<g>
</g>
<g>
</g>
<g>
</g>
<g>
</g>
<g>
</g>
<g>
</g>
</svg>
