<?xml version="1.0" encoding="iso-8859-1"?>
<!-- Generator: Adobe Illustrator 17.1.0, SVG Export Plug-In . SVG Version: 6.00 Build 0)  -->
<!DOCTYPE svg PUBLIC "-//W3C//DTD SVG 1.1//EN" "http://www.w3.org/Graphics/SVG/1.1/DTD/svg11.dtd">
<svg version="1.1" id="Capa_1" xmlns="http://www.w3.org/2000/svg" xmlns:xlink="http://www.w3.org/1999/xlink" x="0px" y="0px"
	 viewBox="0 0 367.303 367.303" style="enable-background:new 0 0 367.303 367.303;" xml:space="preserve">
<g>
	<g>
		<path d="M241.535,156.521c-1.919,0-3.837-0.731-5.302-2.195c-14.048-14.038-32.722-21.769-52.582-21.769
			c-4.143,0-7.5-3.358-7.5-7.5s3.357-7.5,7.5-7.5c23.864,0,46.305,9.29,63.186,26.159c2.93,2.928,2.932,7.677,0.004,10.606
			C245.376,155.788,243.455,156.521,241.535,156.521z"/>
	</g>
	<g>
		<path d="M183.651,296.34c-23.874,0-46.319-9.296-63.203-26.177c-16.888-16.884-26.188-39.334-26.188-63.215
			c0-4.142,3.357-7.5,7.5-7.5s7.5,3.358,7.5,7.5c0,19.874,7.74,38.557,21.794,52.607c14.051,14.048,32.73,21.784,52.598,21.784
			c19.87,0,38.552-7.738,52.603-21.789c2.93-2.929,7.678-2.929,10.607,0c2.929,2.929,2.929,7.678,0,10.606
			C229.977,287.042,207.528,296.34,183.651,296.34z"/>
	</g>
	<g>
		<path d="M183.651,247.485c-22.353,0-40.537-18.185-40.537-40.537s18.185-40.537,40.537-40.537s40.537,18.185,40.537,40.537
			S206.004,247.485,183.651,247.485z M183.651,181.411c-14.081,0-25.537,11.456-25.537,25.537s11.456,25.537,25.537,25.537
			s25.537-11.456,25.537-25.537S197.732,181.411,183.651,181.411z"/>
	</g>
	<g>
		<path d="M183.651,344.006c-4.143,0-7.5-3.358-7.5-7.5s3.357-7.5,7.5-7.5c32.603,0,63.254-12.696,86.308-35.75
			c23.055-23.054,35.751-53.706,35.751-86.308c0-4.142,3.357-7.5,7.5-7.5s7.5,3.358,7.5,7.5c0,36.609-14.257,71.027-40.144,96.915
			C254.679,329.75,220.261,344.006,183.651,344.006z"/>
	</g>
	<g>
		<path d="M54.093,214.448c-4.143,0-7.5-3.358-7.5-7.5c0-36.609,14.257-71.027,40.144-96.915
			c25.888-25.887,60.306-40.144,96.915-40.144c4.143,0,7.5,3.358,7.5,7.5s-3.357,7.5-7.5,7.5c-32.603,0-63.254,12.696-86.308,35.75
			c-23.055,23.054-35.751,53.706-35.751,86.308C61.593,211.09,58.235,214.448,54.093,214.448z"/>
	</g>
	<g>
		<path d="M59.093,339.006c-1.92,0-3.839-0.732-5.304-2.197C19.103,302.123,0,256.003,0,206.948c0-4.142,3.357-7.5,7.5-7.5
			s7.5,3.358,7.5,7.5c0,45.049,17.543,87.401,49.396,119.255c2.929,2.929,2.929,7.678,0,10.606
			C62.932,338.274,61.012,339.006,59.093,339.006z"/>
	</g>
	<g>
		<path d="M308.21,339.006c-1.919,0-3.839-0.732-5.304-2.197c-2.929-2.929-2.929-7.678,0-10.606
			c31.854-31.854,49.396-74.206,49.396-119.255c0-4.142,3.357-7.5,7.5-7.5s7.5,3.358,7.5,7.5c0,49.055-19.103,95.174-53.789,129.861
			C312.049,338.274,310.129,339.006,308.21,339.006z"/>
	</g>
	<g>
		<path d="M308.187,89.867c-1.919,0-3.838-0.732-5.302-2.196c-31.853-31.839-74.197-49.375-119.233-49.375
			c-4.143,0-7.5-3.358-7.5-7.5s3.357-7.5,7.5-7.5c49.042,0,95.152,19.094,129.838,53.766c2.929,2.928,2.93,7.677,0.002,10.606
			C312.026,89.134,310.106,89.867,308.187,89.867z"/>
	</g>
</g>
<g>
</g>
<g>
</g>
<g>
</g>
<g>
</g>
<g>
</g>
<g>
</g>
<g>
</g>
<g>
</g>
<g>
</g>
<g>
</g>
<g>
</g>
<g>
</g>
<g>
</g>
<g>
</g>
<g>
</g>
</svg>
