<?xml version="1.0" encoding="iso-8859-1"?>
<!-- Generator: Adobe Illustrator 17.1.0, SVG Export Plug-In . SVG Version: 6.00 Build 0)  -->
<!DOCTYPE svg PUBLIC "-//W3C//DTD SVG 1.1//EN" "http://www.w3.org/Graphics/SVG/1.1/DTD/svg11.dtd">
<svg version="1.1" id="Capa_1" xmlns="http://www.w3.org/2000/svg" xmlns:xlink="http://www.w3.org/1999/xlink" x="0px" y="0px"
	 viewBox="0 0 277.071 277.071" style="enable-background:new 0 0 277.071 277.071;" xml:space="preserve">
<g>
	<path d="M238.24,200.217c-3.547-2.14-8.156-0.997-10.296,2.549c-10.031,16.633-24.22,30.555-41.032,40.261
		c-17.32,10-37.112,15.286-57.235,15.286C66.443,258.313,15,206.869,15,143.636c0-30.416,11.787-59.065,33.188-80.671
		c18.301-18.476,41.817-29.977,67.256-33.109c-7.917,17.036-12.055,35.68-12.055,54.64c0,24.912,7.084,49.111,20.487,69.982
		c13.045,20.315,31.422,36.563,53.143,46.989c3.734,1.791,8.215,0.218,10.007-3.517c1.792-3.734,0.218-8.214-3.517-10.007
		c-19.213-9.221-35.469-23.596-47.012-41.57c-11.847-18.448-18.108-39.844-18.108-61.877c0-20.884,5.674-41.331,16.409-59.13
		c1.404-2.329,1.438-5.235,0.089-7.596s-3.866-3.844-6.59-3.777c-34.349,0.36-66.583,14.003-90.766,38.416
		C13.329,76.843,0,109.241,0,143.636c0,71.504,58.172,129.677,129.676,129.677c22.753,0,45.138-5.98,64.735-17.295
		c19.002-10.971,35.039-26.707,46.377-45.505C242.928,206.966,241.787,202.356,238.24,200.217z"/>
	<path d="M269.571,24.366h-13.107V11.258c0-4.142-3.358-7.5-7.5-7.5s-7.5,3.358-7.5,7.5v13.107h-13.107c-4.142,0-7.5,3.358-7.5,7.5
		s3.358,7.5,7.5,7.5h13.107v13.107c0,4.142,3.358,7.5,7.5,7.5s7.5-3.358,7.5-7.5V39.366h13.107c4.142,0,7.5-3.358,7.5-7.5
		S273.713,24.366,269.571,24.366z"/>
	<path d="M183.964,127h13.107v13.107c0,4.142,3.358,7.5,7.5,7.5s7.5-3.358,7.5-7.5V127h13.107c4.142,0,7.5-3.358,7.5-7.5
		s-3.358-7.5-7.5-7.5h-13.107V98.893c0-4.142-3.358-7.5-7.5-7.5s-7.5,3.358-7.5,7.5V112h-13.107c-4.142,0-7.5,3.358-7.5,7.5
		S179.822,127,183.964,127z"/>
</g>
<g>
</g>
<g>
</g>
<g>
</g>
<g>
</g>
<g>
</g>
<g>
</g>
<g>
</g>
<g>
</g>
<g>
</g>
<g>
</g>
<g>
</g>
<g>
</g>
<g>
</g>
<g>
</g>
<g>
</g>
</svg>
