<?xml version="1.0" encoding="iso-8859-1"?>
<!-- Generator: Adobe Illustrator 17.1.0, SVG Export Plug-In . SVG Version: 6.00 Build 0)  -->
<!DOCTYPE svg PUBLIC "-//W3C//DTD SVG 1.1//EN" "http://www.w3.org/Graphics/SVG/1.1/DTD/svg11.dtd">
<svg version="1.1" id="Capa_1" xmlns="http://www.w3.org/2000/svg" xmlns:xlink="http://www.w3.org/1999/xlink" x="0px" y="0px"
	 viewBox="0 0 368.554 368.554" style="enable-background:new 0 0 368.554 368.554;" xml:space="preserve">
<g>
	<g>
		<path d="M361.054,280.165c-4.142,0-7.5-3.358-7.5-7.5c0-93.339-75.938-169.276-169.277-169.276
			c-14.421,0-28.741,1.815-42.563,5.395c-4.01,1.039-8.102-1.371-9.141-5.38c-1.038-4.01,1.371-8.103,5.38-9.141
			c15.05-3.897,30.636-5.873,46.324-5.873c101.61,0,184.277,82.666,184.277,184.276
			C368.554,276.807,365.196,280.165,361.054,280.165z"/>
	</g>
	<g>
		<path d="M7.5,280.165c-4.142,0-7.5-3.358-7.5-7.5c0-32.13,8.396-63.766,24.28-91.487c15.402-26.881,37.519-49.64,63.959-65.815
			c3.533-2.164,8.15-1.05,10.312,2.483c2.162,3.533,1.05,8.15-2.483,10.312c-24.296,14.864-44.619,35.777-58.772,60.477
			C22.709,214.09,15,243.147,15,272.665C15,276.807,11.642,280.165,7.5,280.165z"/>
	</g>
	<g>
		<path d="M294.309,280.165c-4.142,0-7.5-3.358-7.5-7.5c0-23.403-7.676-45.438-22.199-63.721c-2.577-3.244-2.036-7.961,1.208-10.538
			c3.244-2.577,7.962-2.036,10.538,1.208c16.652,20.964,25.454,46.225,25.454,73.051
			C301.809,276.807,298.451,280.165,294.309,280.165z"/>
	</g>
	<g>
		<path d="M74.245,280.165c-4.142,0-7.5-3.358-7.5-7.5c0-64.808,52.725-117.532,117.532-117.532
			c25.435,0,49.643,7.993,70.007,23.116c3.326,2.47,4.02,7.167,1.55,10.493c-2.47,3.325-7.167,4.019-10.493,1.55
			c-17.759-13.188-38.874-20.159-61.064-20.159c-56.537,0-102.532,45.996-102.532,102.532
			C81.745,276.807,78.387,280.165,74.245,280.165z"/>
	</g>
	<g>
		<path d="M107.282,280.165c-4.142,0-7.5-3.358-7.5-7.5c0-46.591,37.904-84.495,84.495-84.495c41.292,0,76.315,29.495,83.278,70.133
			c0.7,4.083-2.043,7.959-6.125,8.659c-4.081,0.705-7.959-2.042-8.659-6.125c-5.726-33.414-34.531-57.667-68.494-57.667
			c-38.32,0-69.495,31.175-69.495,69.495C114.782,276.807,111.424,280.165,107.282,280.165z"/>
	</g>
	<g>
		<path d="M328.143,280.165c-4.142,0-7.5-3.358-7.5-7.5c0-75.192-61.173-136.366-136.366-136.366S47.911,197.473,47.911,272.665
			c0,4.142-3.358,7.5-7.5,7.5s-7.5-3.358-7.5-7.5c0-83.463,67.902-151.366,151.366-151.366s151.366,67.902,151.366,151.366
			C335.643,276.807,332.285,280.165,328.143,280.165z"/>
	</g>
</g>
<g>
</g>
<g>
</g>
<g>
</g>
<g>
</g>
<g>
</g>
<g>
</g>
<g>
</g>
<g>
</g>
<g>
</g>
<g>
</g>
<g>
</g>
<g>
</g>
<g>
</g>
<g>
</g>
<g>
</g>
</svg>
