<?xml version="1.0" encoding="iso-8859-1"?>
<!-- Generator: Adobe Illustrator 17.1.0, SVG Export Plug-In . SVG Version: 6.00 Build 0)  -->
<!DOCTYPE svg PUBLIC "-//W3C//DTD SVG 1.1//EN" "http://www.w3.org/Graphics/SVG/1.1/DTD/svg11.dtd">
<svg version="1.1" id="Capa_1" xmlns="http://www.w3.org/2000/svg" xmlns:xlink="http://www.w3.org/1999/xlink" x="0px" y="0px"
	 viewBox="0 0 343.304 343.304" style="enable-background:new 0 0 343.304 343.304;" xml:space="preserve">
<g>
	<path d="M228.735,248.31c4.142,0,7.5-3.358,7.5-7.5s-3.358-7.5-7.5-7.5h-41.648l9.814-13.568c2.428-3.356,1.675-8.045-1.681-10.472
		c-3.355-2.428-8.045-1.676-10.472,1.681l-16.173,22.359h-54.423c-4.142,0-7.5,3.358-7.5,7.5s3.358,7.5,7.5,7.5h43.573
		l-23.007,31.808c-2.428,3.356-1.675,8.045,1.681,10.472c1.329,0.961,2.866,1.424,4.389,1.424c2.325,0,4.617-1.077,6.083-3.105
		l29.366-40.599H228.735z"/>
	<path d="M278.495,118.691c-4.142,0-7.5,3.358-7.5,7.5s3.358,7.5,7.5,7.5c27.465,0,49.809,22.344,49.809,49.809
		c0,25.011-18.676,46.251-43.441,49.407c-4.109,0.523-7.016,4.279-6.492,8.388c0.482,3.788,3.71,6.553,7.431,6.553
		c0.315,0,0.636-0.02,0.957-0.061c32.236-4.107,56.545-31.744,56.545-64.287C343.304,147.765,314.23,118.691,278.495,118.691z"/>
	<path d="M59.874,246.245c3.549,0,6.704-2.531,7.368-6.147c0.748-4.074-1.948-7.983-6.022-8.731C34.438,226.449,15,203.08,15,175.8
		c0-31.153,25.345-56.499,56.499-56.499c11.192,0,22.02,3.279,31.313,9.482c2.382,1.59,5.461,1.685,7.938,0.244
		c2.475-1.441,3.914-4.167,3.707-7.023l-0.038-0.523c-0.129-1.761-0.25-3.425-0.25-5.035c0-41.963,34.14-76.104,76.104-76.104
		c18.13,0,35.691,6.481,49.446,18.25c13.61,11.644,22.71,27.727,25.626,45.287c0.679,4.086,4.542,6.846,8.627,6.17
		c4.086-0.679,6.849-4.541,6.17-8.627c-3.493-21.035-14.386-40.293-30.672-54.228c-16.47-14.091-37.494-21.852-59.197-21.852
		c-48.055,0-87.54,37.399-90.876,84.62c-8.771-3.727-18.227-5.661-27.897-5.661C32.074,104.302,0,136.376,0,175.8
		c0,34.521,24.607,64.094,58.511,70.32C58.969,246.205,59.424,246.245,59.874,246.245z"/>
	<path d="M109.357,209.27c-3.356-2.428-8.045-1.676-10.472,1.681l-50.03,69.167c-2.428,3.356-1.675,8.045,1.681,10.472
		c1.329,0.961,2.866,1.424,4.389,1.424c2.325,0,4.617-1.077,6.083-3.105l50.03-69.167
		C113.466,216.386,112.713,211.697,109.357,209.27z"/>
	<path d="M38.292,302.961c-1.97,0-3.91,0.8-5.3,2.2c-1.4,1.39-2.2,3.32-2.2,5.3c0,1.97,0.8,3.9,2.2,5.3c1.39,1.4,3.33,2.2,5.3,2.2
		c1.98,0,3.91-0.8,5.31-2.2c1.39-1.4,2.19-3.33,2.19-5.3c0-1.98-0.8-3.91-2.19-5.3C42.202,303.761,40.271,302.961,38.292,302.961z"
		/>
	<path d="M124.162,302.961c-1.98,0-3.91,0.8-5.31,2.2c-1.39,1.39-2.19,3.32-2.19,5.3c0,1.97,0.8,3.91,2.19,5.3
		c1.4,1.4,3.33,2.2,5.31,2.2c1.97,0,3.9-0.8,5.3-2.2c1.39-1.39,2.2-3.33,2.2-5.3c0-1.98-0.81-3.91-2.2-5.3
		C128.062,303.761,126.132,302.961,124.162,302.961z"/>
	<path d="M281.083,209.27c-3.356-2.428-8.045-1.676-10.472,1.681l-50.03,69.167c-2.428,3.356-1.675,8.045,1.681,10.472
		c1.329,0.961,2.866,1.424,4.389,1.424c2.325,0,4.617-1.077,6.083-3.105l50.03-69.167
		C285.192,216.386,284.44,211.697,281.083,209.27z"/>
	<path d="M210.021,302.961c-1.97,0-3.91,0.8-5.3,2.19c-1.4,1.4-2.2,3.33-2.2,5.31c0,1.97,0.8,3.91,2.2,5.3
		c1.39,1.4,3.33,2.2,5.3,2.2c1.97,0,3.91-0.8,5.3-2.2c1.4-1.4,2.2-3.33,2.2-5.3c0-1.98-0.8-3.91-2.2-5.31
		C213.932,303.761,211.992,302.961,210.021,302.961z"/>
</g>
<g>
</g>
<g>
</g>
<g>
</g>
<g>
</g>
<g>
</g>
<g>
</g>
<g>
</g>
<g>
</g>
<g>
</g>
<g>
</g>
<g>
</g>
<g>
</g>
<g>
</g>
<g>
</g>
<g>
</g>
</svg>
