<?xml version="1.0" encoding="iso-8859-1"?>
<!-- Generator: Adobe Illustrator 17.1.0, SVG Export Plug-In . SVG Version: 6.00 Build 0)  -->
<!DOCTYPE svg PUBLIC "-//W3C//DTD SVG 1.1//EN" "http://www.w3.org/Graphics/SVG/1.1/DTD/svg11.dtd">
<svg version="1.1" id="Capa_1" xmlns="http://www.w3.org/2000/svg" xmlns:xlink="http://www.w3.org/1999/xlink" x="0px" y="0px"
	 viewBox="0 0 347.485 347.485" style="enable-background:new 0 0 347.485 347.485;" xml:space="preserve">
<g>
	<g>
		<path d="M282.676,233.765l-207.032-1.011c-39.389,0-71.463-32.074-71.463-71.499S36.255,89.757,75.68,89.757
			c9.67,0,19.126,1.934,27.897,5.661c3.336-47.22,42.82-84.62,90.875-84.62c21.701,0,42.724,7.759,59.193,21.848
			c16.285,13.931,27.179,33.186,30.674,54.218c0.679,4.086-2.083,7.949-6.169,8.628c-4.087,0.682-7.949-2.083-8.628-6.169
			c-6.117-36.809-37.688-63.525-75.07-63.525c-41.964,0-76.104,34.14-76.104,76.104c0,1.596,0.12,3.247,0.247,4.994l0.041,0.567
			c0.206,2.856-1.233,5.581-3.708,7.021c-2.476,1.439-5.553,1.346-7.937-0.245c-9.293-6.204-20.12-9.482-31.313-9.482
			c-31.153,0-56.499,25.345-56.499,56.499s25.346,56.499,56.499,56.499l207.032,1.011c27.429,0,49.772-22.344,49.772-49.809
			s-22.344-49.809-49.809-49.809c-4.143,0-7.5-3.358-7.5-7.5s3.357-7.5,7.5-7.5c35.735,0,64.809,29.073,64.809,64.809
			S318.411,233.765,282.676,233.765z"/>
	</g>
	<g>
		<path d="M7.5,336.686c-1.919,0-3.839-0.732-5.304-2.197c-2.929-2.929-2.929-7.678,0-10.606l64.166-64.167
			c2.929-2.928,7.677-2.93,10.607,0c2.929,2.929,2.929,7.678,0,10.606l-64.166,64.167C11.339,335.954,9.419,336.686,7.5,336.686z"/>
	</g>
	<g>
		<path d="M84.166,336.686c-1.92,0-3.839-0.732-5.304-2.197c-2.929-2.929-2.929-7.678,0-10.606l64.167-64.167
			c2.931-2.93,7.679-2.929,10.607,0s2.929,7.678,0,10.606L89.47,334.489C88.005,335.954,86.085,336.686,84.166,336.686z"/>
	</g>
	<g>
		<path d="M160.833,336.686c-1.92,0-3.839-0.732-5.304-2.197c-2.929-2.929-2.929-7.678,0-10.606l64.167-64.167
			c2.931-2.93,7.679-2.929,10.607,0s2.929,7.678,0,10.606l-64.167,64.167C164.672,335.954,162.752,336.686,160.833,336.686z"/>
	</g>
	<g>
		<path d="M237.5,336.686c-1.919,0-3.839-0.732-5.304-2.197c-2.929-2.929-2.929-7.678,0-10.606l64.166-64.167
			c2.929-2.928,7.677-2.93,10.607,0c2.929,2.929,2.929,7.678,0,10.606l-64.166,64.167
			C241.339,335.954,239.419,336.686,237.5,336.686z"/>
	</g>
</g>
<g>
</g>
<g>
</g>
<g>
</g>
<g>
</g>
<g>
</g>
<g>
</g>
<g>
</g>
<g>
</g>
<g>
</g>
<g>
</g>
<g>
</g>
<g>
</g>
<g>
</g>
<g>
</g>
<g>
</g>
</svg>
