<?xml version="1.0" encoding="iso-8859-1"?>
<!-- Generator: Adobe Illustrator 17.1.0, SVG Export Plug-In . SVG Version: 6.00 Build 0)  -->
<!DOCTYPE svg PUBLIC "-//W3C//DTD SVG 1.1//EN" "http://www.w3.org/Graphics/SVG/1.1/DTD/svg11.dtd">
<svg version="1.1" id="Capa_1" xmlns="http://www.w3.org/2000/svg" xmlns:xlink="http://www.w3.org/1999/xlink" x="0px" y="0px"
	 viewBox="0 0 348.541 348.541" style="enable-background:new 0 0 348.541 348.541;" xml:space="preserve">
<g>
	<g>
		<path d="M341.041,136.396c-20.194,0-30.252-12.058-39.126-22.696c-8.063-9.667-14.434-17.304-27.605-17.304
			c-13.173,0-19.542,7.636-27.606,17.304c-8.874,10.638-18.933,22.696-39.126,22.696c-20.184,0-30.235-12.059-39.104-22.698
			c-8.058-9.667-14.423-17.302-27.583-17.302c-13.166,0-19.532,7.636-27.593,17.303c-8.871,10.639-18.926,22.697-39.114,22.697
			c-20.184,0-30.235-12.059-39.104-22.698C27.023,104.031,20.659,96.396,7.5,96.396c-4.142,0-7.5-3.358-7.5-7.5s3.358-7.5,7.5-7.5
			c20.183,0,30.234,12.059,39.103,22.698c8.058,9.667,14.422,17.302,27.581,17.302c13.166,0,19.532-7.636,27.593-17.303
			c8.871-10.639,18.926-22.697,39.114-22.697c20.184,0,30.236,12.059,39.104,22.698c8.059,9.667,14.423,17.302,27.582,17.302
			c13.173,0,19.542-7.636,27.606-17.304c8.874-10.638,18.933-22.696,39.126-22.696s30.251,12.058,39.125,22.696
			c8.064,9.668,14.434,17.304,27.606,17.304c4.143,0,7.5,3.358,7.5,7.5S345.184,136.396,341.041,136.396z"/>
	</g>
	<g>
		<path d="M341.041,201.771c-20.194,0-30.252-12.058-39.126-22.696c-8.063-9.667-14.434-17.304-27.605-17.304
			c-13.173,0-19.542,7.636-27.606,17.304c-8.874,10.638-18.933,22.696-39.126,22.696c-20.184,0-30.235-12.059-39.104-22.698
			c-8.058-9.667-14.423-17.302-27.583-17.302c-4.142,0-7.5-3.358-7.5-7.5s3.358-7.5,7.5-7.5c20.184,0,30.236,12.059,39.104,22.698
			c8.059,9.667,14.423,17.302,27.582,17.302c13.173,0,19.542-7.636,27.606-17.304c8.874-10.638,18.933-22.696,39.126-22.696
			s30.251,12.058,39.125,22.696c8.064,9.668,14.434,17.304,27.606,17.304c4.143,0,7.5,3.358,7.5,7.5
			S345.184,201.771,341.041,201.771z"/>
	</g>
	<g>
		<path d="M74.184,201.771c-20.184,0-30.235-12.059-39.104-22.698c-8.058-9.667-14.422-17.302-27.581-17.302
			c-4.142,0-7.5-3.358-7.5-7.5s3.358-7.5,7.5-7.5c20.183,0,30.234,12.059,39.103,22.698c8.058,9.667,14.422,17.302,27.581,17.302
			c4.142,0,7.5,3.358,7.5,7.5S78.326,201.771,74.184,201.771z"/>
	</g>
	<g>
		<path d="M341.041,267.145c-20.193,0-30.252-12.058-39.126-22.696c-8.063-9.667-14.434-17.304-27.605-17.304
			c-4.143,0-7.5-3.358-7.5-7.5s3.357-7.5,7.5-7.5c20.193,0,30.251,12.058,39.125,22.696c8.064,9.668,14.434,17.304,27.606,17.304
			c4.143,0,7.5,3.358,7.5,7.5S345.184,267.145,341.041,267.145z"/>
	</g>
	<g>
		<path d="M207.577,267.145c-20.184,0-30.235-12.059-39.104-22.698c-8.058-9.667-14.423-17.302-27.583-17.302
			c-13.166,0-19.532,7.636-27.593,17.303c-8.871,10.639-18.926,22.697-39.114,22.697c-20.184,0-30.235-12.059-39.104-22.698
			c-8.058-9.667-14.422-17.302-27.581-17.302c-4.142,0-7.5-3.358-7.5-7.5s3.358-7.5,7.5-7.5c20.183,0,30.234,12.059,39.103,22.698
			c8.058,9.667,14.422,17.302,27.581,17.302c13.166,0,19.532-7.636,27.593-17.303c8.871-10.639,18.926-22.697,39.114-22.697
			c20.184,0,30.236,12.059,39.104,22.698c8.059,9.667,14.423,17.302,27.582,17.302c4.143,0,7.5,3.358,7.5,7.5
			S211.72,267.145,207.577,267.145z"/>
	</g>
</g>
<g>
</g>
<g>
</g>
<g>
</g>
<g>
</g>
<g>
</g>
<g>
</g>
<g>
</g>
<g>
</g>
<g>
</g>
<g>
</g>
<g>
</g>
<g>
</g>
<g>
</g>
<g>
</g>
<g>
</g>
</svg>
