<?xml version="1.0" encoding="iso-8859-1"?>
<!-- Generator: Adobe Illustrator 17.1.0, SVG Export Plug-In . SVG Version: 6.00 Build 0)  -->
<!DOCTYPE svg PUBLIC "-//W3C//DTD SVG 1.1//EN" "http://www.w3.org/Graphics/SVG/1.1/DTD/svg11.dtd">
<svg version="1.1" id="Capa_1" xmlns="http://www.w3.org/2000/svg" xmlns:xlink="http://www.w3.org/1999/xlink" x="0px" y="0px"
	 viewBox="0 0 368.554 368.554" style="enable-background:new 0 0 368.554 368.554;" xml:space="preserve">
<g>
	<g>
		<path d="M51.694,139.9C23.19,139.9,0,116.709,0,88.206c0-4.143,3.358-7.5,7.5-7.5s7.5,3.357,7.5,7.5
			c0,20.233,16.461,36.694,36.694,36.694s36.694-16.461,36.694-36.694c0-4.143,3.358-7.5,7.5-7.5s7.5,3.357,7.5,7.5
			C103.389,116.709,80.199,139.9,51.694,139.9z"/>
	</g>
	<g>
		<path d="M140.083,139.9c-28.504,0-51.694-23.19-51.694-51.694c0-4.143,3.358-7.5,7.5-7.5s7.5,3.357,7.5,7.5
			c0,20.233,16.461,36.694,36.694,36.694c20.233,0,36.694-16.461,36.694-36.694c0-4.143,3.358-7.5,7.5-7.5s7.5,3.357,7.5,7.5
			C191.777,116.709,168.587,139.9,140.083,139.9z"/>
	</g>
	<g>
		<path d="M228.471,139.9c-28.504,0-51.694-23.19-51.694-51.694c0-4.143,3.358-7.5,7.5-7.5s7.5,3.357,7.5,7.5
			c0,20.233,16.461,36.694,36.694,36.694c20.233,0,36.694-16.461,36.694-36.694c0-4.143,3.358-7.5,7.5-7.5s7.5,3.357,7.5,7.5
			C280.165,116.709,256.975,139.9,228.471,139.9z"/>
	</g>
	<g>
		<path d="M316.859,139.9c-4.142,0-7.5-3.357-7.5-7.5s3.358-7.5,7.5-7.5c20.233,0,36.694-16.461,36.694-36.694
			c0-4.143,3.358-7.5,7.5-7.5s7.5,3.357,7.5,7.5C368.554,116.709,345.364,139.9,316.859,139.9z"/>
	</g>
	<g>
		<path d="M51.694,213.874C23.19,213.874,0,190.684,0,162.18c0-4.143,3.358-7.5,7.5-7.5s7.5,3.357,7.5,7.5
			c0,20.232,16.461,36.693,36.694,36.693s36.694-16.461,36.694-36.693c0-4.143,3.358-7.5,7.5-7.5s7.5,3.357,7.5,7.5
			C103.389,190.684,80.199,213.874,51.694,213.874z"/>
	</g>
	<g>
		<path d="M140.083,213.874c-28.504,0-51.694-23.189-51.694-51.693c0-4.143,3.358-7.5,7.5-7.5s7.5,3.357,7.5,7.5
			c0,20.232,16.461,36.693,36.694,36.693c4.142,0,7.5,3.357,7.5,7.5S144.225,213.874,140.083,213.874z"/>
	</g>
	<g>
		<path d="M228.471,213.874c-28.504,0-51.694-23.189-51.694-51.693c0-4.143,3.358-7.5,7.5-7.5s7.5,3.357,7.5,7.5
			c0,20.232,16.461,36.693,36.694,36.693c20.233,0,36.694-16.461,36.694-36.693c0-4.143,3.358-7.5,7.5-7.5s7.5,3.357,7.5,7.5
			C280.165,190.684,256.975,213.874,228.471,213.874z"/>
	</g>
	<g>
		<path d="M316.859,213.874c-28.504,0-51.694-23.189-51.694-51.693c0-4.143,3.358-7.5,7.5-7.5s7.5,3.357,7.5,7.5
			c0,20.232,16.461,36.693,36.694,36.693s36.694-16.461,36.694-36.693c0-4.143,3.358-7.5,7.5-7.5s7.5,3.357,7.5,7.5
			C368.554,190.684,345.364,213.874,316.859,213.874z"/>
	</g>
	<g>
		<path d="M51.694,287.848C23.19,287.848,0,264.658,0,236.154c0-4.143,3.358-7.5,7.5-7.5s7.5,3.357,7.5,7.5
			c0,20.233,16.461,36.694,36.694,36.694s36.694-16.461,36.694-36.694c0-4.143,3.358-7.5,7.5-7.5s7.5,3.357,7.5,7.5
			C103.389,264.658,80.199,287.848,51.694,287.848z"/>
	</g>
	<g>
		<path d="M140.083,287.848c-28.504,0-51.694-23.19-51.694-51.694c0-4.143,3.358-7.5,7.5-7.5s7.5,3.357,7.5,7.5
			c0,20.233,16.461,36.694,36.694,36.694c20.233,0,36.694-16.461,36.694-36.694c0-4.143,3.358-7.5,7.5-7.5s7.5,3.357,7.5,7.5
			C191.777,264.658,168.587,287.848,140.083,287.848z"/>
	</g>
	<g>
		<path d="M228.471,287.848c-4.142,0-7.5-3.357-7.5-7.5s3.358-7.5,7.5-7.5c20.233,0,36.694-16.461,36.694-36.694
			c0-4.143,3.358-7.5,7.5-7.5s7.5,3.357,7.5,7.5C280.165,264.658,256.975,287.848,228.471,287.848z"/>
	</g>
	<g>
		<path d="M316.859,287.848c-28.504,0-51.694-23.19-51.694-51.694c0-4.143,3.358-7.5,7.5-7.5s7.5,3.357,7.5,7.5
			c0,20.233,16.461,36.694,36.694,36.694s36.694-16.461,36.694-36.694c0-4.143,3.358-7.5,7.5-7.5s7.5,3.357,7.5,7.5
			C368.554,264.658,345.364,287.848,316.859,287.848z"/>
	</g>
</g>
<g>
</g>
<g>
</g>
<g>
</g>
<g>
</g>
<g>
</g>
<g>
</g>
<g>
</g>
<g>
</g>
<g>
</g>
<g>
</g>
<g>
</g>
<g>
</g>
<g>
</g>
<g>
</g>
<g>
</g>
</svg>
