<?xml version="1.0" encoding="iso-8859-1"?>
<!-- Generator: Adobe Illustrator 17.1.0, SVG Export Plug-In . SVG Version: 6.00 Build 0)  -->
<!DOCTYPE svg PUBLIC "-//W3C//DTD SVG 1.1//EN" "http://www.w3.org/Graphics/SVG/1.1/DTD/svg11.dtd">
<svg version="1.1" id="Capa_1" xmlns="http://www.w3.org/2000/svg" xmlns:xlink="http://www.w3.org/1999/xlink" x="0px" y="0px"
	 viewBox="0 0 368.554 368.554" style="enable-background:new 0 0 368.554 368.554;" xml:space="preserve">
<path d="M350.054,231.356c-1.068-4.002-5.184-6.377-9.181-5.311l-47.495,12.682l-30.185-17.462v-74.555l29.87-17.509l47.569,12.41
	c0.635,0.166,1.271,0.245,1.898,0.245c3.331,0,6.372-2.235,7.252-5.609c1.046-4.008-1.355-8.104-5.363-9.15l-33.054-8.623
	l29.212-17.124c3.573-2.095,4.772-6.689,2.678-10.263c-2.096-3.573-6.692-4.773-10.264-2.677l-29.211,17.123l8.623-33.054
	c1.046-4.008-1.355-8.104-5.363-9.15c-4.006-1.046-8.104,1.355-9.15,5.364l-12.409,47.568l-30.356,17.794l-63.346-36.573V62.575
	l34.762-34.762c2.929-2.929,2.929-7.678,0-10.606c-2.93-2.929-7.678-2.929-10.607,0l-24.154,24.155V7.5c0-4.142-3.357-7.5-7.5-7.5
	s-7.5,3.358-7.5,7.5v33.861l-24.154-24.155c-2.929-2.929-7.677-2.93-10.607,0c-2.929,2.929-2.929,7.678,0,10.606l34.762,34.762
	v34.907l-64.68,37.343l-29.22-17.271L70.005,69.346c-1.068-4.002-5.183-6.378-9.181-5.312c-4.002,1.068-6.38,5.179-5.312,9.181
	l8.929,33.441L35.077,89.299c-3.564-2.107-8.164-0.926-10.272,2.64c-2.108,3.566-0.926,8.165,2.64,10.273l28.94,17.106
	l-32.573,8.698c-4.002,1.068-6.38,5.179-5.312,9.181c0.896,3.354,3.927,5.567,7.241,5.567c0.641,0,1.292-0.083,1.939-0.256
	l46.797-12.496l30.884,18.255v73.574L75.49,239.352l-47.568-12.409c-4.008-1.045-8.105,1.356-9.15,5.364
	c-1.046,4.008,1.355,8.104,5.363,9.15l33.054,8.623l-29.211,17.124c-3.573,2.095-4.772,6.689-2.678,10.263
	c1.396,2.382,3.903,3.708,6.478,3.708c1.288,0,2.595-0.332,3.786-1.031l29.212-17.124l-8.623,33.055
	c-1.046,4.008,1.355,8.104,5.363,9.15c0.635,0.166,1.271,0.245,1.898,0.245c3.331,0,6.372-2.235,7.252-5.609l12.409-47.569
	l30.357-17.795l63.344,36.572v34.91l-34.762,34.762c-2.929,2.929-2.929,7.678,0,10.606c1.465,1.464,3.385,2.197,5.304,2.197
	s3.839-0.732,5.304-2.197l24.154-24.155v33.861c0,4.142,3.357,7.5,7.5,7.5s7.5-3.358,7.5-7.5v-33.861l7.756,7.756
	c2.929,2.929,7.677,2.93,10.607,0c2.929-2.929,2.929-7.677,0-10.606l-18.363-18.364V197.28l48.855,28.263l-23.149,13.365
	c-3.587,2.071-4.816,6.658-2.745,10.245s6.66,4.817,10.245,2.745l30.634-17.686l30.25,17.5l12.682,47.496
	c0.896,3.354,3.927,5.567,7.241,5.567c0.641,0,1.292-0.083,1.939-0.256c4.002-1.068,6.38-5.179,5.312-9.181l-8.813-33.005
	l29.31,16.956c1.183,0.685,2.475,1.01,3.749,1.01c2.59,0,5.108-1.343,6.499-3.746c2.074-3.585,0.849-8.174-2.736-10.248
	l-29.31-16.956l33.003-8.812C348.745,239.469,351.123,235.358,350.054,231.356z M120.361,157.133l8.625,5.098
	c1.198,0.708,2.512,1.044,3.81,1.044c2.564,0,5.063-1.316,6.463-3.685c2.108-3.566,0.926-8.165-2.64-10.273l-9.698-5.732
	l49.856-28.784v56.471l-13.234-7.656c-3.586-2.076-8.174-0.849-10.248,2.736c-2.074,3.585-0.849,8.174,2.736,10.248l13.341,7.718
	l-49.01,28.73V157.133z M128.318,225.771l48.459-28.407v56.384L128.318,225.771z M191.777,114.802l48.46,27.978l-15.232,8.929
	c-3.573,2.095-4.772,6.689-2.678,10.263c1.396,2.381,3.903,3.708,6.478,3.708c1.288,0,2.595-0.332,3.786-1.031l15.603-9.146v57.084
	l-56.416-32.637V114.802z"/>
<g>
</g>
<g>
</g>
<g>
</g>
<g>
</g>
<g>
</g>
<g>
</g>
<g>
</g>
<g>
</g>
<g>
</g>
<g>
</g>
<g>
</g>
<g>
</g>
<g>
</g>
<g>
</g>
<g>
</g>
</svg>
