<?xml version="1.0" encoding="iso-8859-1"?>
<!-- Generator: Adobe Illustrator 17.1.0, SVG Export Plug-In . SVG Version: 6.00 Build 0)  -->
<!DOCTYPE svg PUBLIC "-//W3C//DTD SVG 1.1//EN" "http://www.w3.org/Graphics/SVG/1.1/DTD/svg11.dtd">
<svg version="1.1" id="Capa_1" xmlns="http://www.w3.org/2000/svg" xmlns:xlink="http://www.w3.org/1999/xlink" x="0px" y="0px"
	 viewBox="0 0 368.554 368.554" style="enable-background:new 0 0 368.554 368.554;" xml:space="preserve">
<g>
	<path d="M146.167,87.108c25.956-10.18,54.321-9.642,79.871,1.512c52.745,23.027,76.923,84.672,53.896,137.417
		c-1.657,3.796,0.077,8.217,3.873,9.874c3.795,1.657,8.217-0.077,9.874-3.873c26.336-60.325-1.317-130.83-61.642-157.166
		c-29.225-12.758-61.666-13.372-91.349-1.729c-29.685,11.643-53.059,34.148-65.817,63.371
		c-26.336,60.326,1.316,130.83,61.642,157.166c15.303,6.681,31.502,10.03,47.729,10.03c14.53,0,29.083-2.687,43.03-8.072
		c3.864-1.492,5.787-5.834,4.295-9.698c-1.493-3.865-5.836-5.786-9.698-4.295c-25.812,9.968-53.994,9.36-79.354-1.712
		c-52.746-23.027-76.923-84.672-53.896-137.417C99.775,116.965,120.212,97.288,146.167,87.108z"/>
	<path d="M303.974,53.974L280.62,77.327c-2.929,2.929-2.929,7.678,0,10.606c1.464,1.464,3.384,2.197,5.303,2.197
		s3.839-0.732,5.303-2.197L314.58,64.58c2.929-2.929,2.929-7.678,0-10.606C311.651,51.045,306.902,51.045,303.974,53.974z"/>
	<path d="M77.327,280.62l-23.354,23.354c-2.929,2.929-2.929,7.678,0,10.606c1.464,1.464,3.384,2.197,5.303,2.197
		s3.839-0.732,5.303-2.197l23.354-23.354c2.929-2.929,2.929-7.678,0-10.606C85.005,277.691,80.256,277.691,77.327,280.62z"/>
	<path d="M361.054,176.777h-33.027c-4.142,0-7.5,3.358-7.5,7.5s3.358,7.5,7.5,7.5h33.027c4.142,0,7.5-3.358,7.5-7.5
		S365.196,176.777,361.054,176.777z"/>
	<path d="M40.527,176.777H7.5c-4.142,0-7.5,3.358-7.5,7.5s3.358,7.5,7.5,7.5h33.027c4.142,0,7.5-3.358,7.5-7.5
		S44.669,176.777,40.527,176.777z"/>
	<path d="M291.227,280.62c-2.929-2.929-7.678-2.929-10.606,0c-2.929,2.929-2.929,7.678,0,10.606l23.354,23.354
		c1.464,1.464,3.384,2.197,5.303,2.197s3.839-0.732,5.303-2.197c2.929-2.929,2.929-7.678,0-10.606L291.227,280.62z"/>
	<path d="M77.327,87.934c1.464,1.464,3.384,2.197,5.303,2.197s3.839-0.732,5.303-2.197c2.929-2.929,2.929-7.678,0-10.606
		L64.58,53.974c-2.929-2.929-7.678-2.929-10.606,0c-2.929,2.929-2.929,7.678,0,10.606L77.327,87.934z"/>
	<path d="M184.277,320.527c-4.142,0-7.5,3.358-7.5,7.5v33.027c0,4.142,3.358,7.5,7.5,7.5s7.5-3.358,7.5-7.5v-33.027
		C191.777,323.885,188.419,320.527,184.277,320.527z"/>
	<path d="M184.277,48.027c4.142,0,7.5-3.358,7.5-7.5V7.5c0-4.142-3.358-7.5-7.5-7.5s-7.5,3.358-7.5,7.5v33.027
		C176.777,44.669,180.135,48.027,184.277,48.027z"/>
</g>
<g>
</g>
<g>
</g>
<g>
</g>
<g>
</g>
<g>
</g>
<g>
</g>
<g>
</g>
<g>
</g>
<g>
</g>
<g>
</g>
<g>
</g>
<g>
</g>
<g>
</g>
<g>
</g>
<g>
</g>
</svg>
